# xmcd CD database file
#
# Track frame offsets:
#	150
#	15035
#	37273
#	58795
#	76195
#	92545
#	111785
#	130420
#	144710
#	159520
#	178348
#	190798
#
# Disc length: 2754 seconds
#
# Revision: 2
# Processed by: cddbd v1.5.2PL0 Copyright (c) Steve Scherf et al.
# Submitted via: CDex 1.50beta8
#
DISCID=9b0ac00c
DTITLE=Magic Sam - West Side Soul
DYEAR=1967
DGENRE=Blues
TTITLE0=That's All I Need
TTITLE1=I Need You So Bad
TTITLE2=I Feel So Good (I Wanna Boogie)
TTITLE3=All Of Your Love
TTITLE4=I Don't Want No Woman
TTITLE5=Sweet Home Chicago
TTITLE6=I Found A New Love
TTITLE7=Every Night And Every Day
TTITLE8=Lookin' Good
TTITLE9=My Love Will Never Die
TTITLE10=Mama, Mama -Talk to Your Daughter
TTITLE11=I Don't Want No Woman (Alt.)
EXTD=YEAR: 1967
EXTT0=
EXTT1=
EXTT2=
EXTT3=
EXTT4=
EXTT5=
EXTT6=
EXTT7=
EXTT8=
EXTT9=
EXTT10=
EXTT11=
PLAYORDER=
